<?xml version="1.0" standalone="no"?>
<!DOCTYPE svg PUBLIC "-//W3C//DTD SVG 20010904//EN"
 "http://www.w3.org/TR/2001/REC-SVG-20010904/DTD/svg10.dtd">
<svg version="1.0" xmlns="http://www.w3.org/2000/svg"
 width="672.000000pt" height="672.000000pt" viewBox="0 0 672.000000 672.000000"
 preserveAspectRatio="xMidYMid meet">
<metadata>
Created by potrace 1.14, written by Peter Selinger 2001-2017
</metadata>
<g transform="translate(0.000000,672.000000) scale(0.100000,-0.100000)"
fill="#000000" stroke="none">
<path d="M1415 6710 c-4 -6 -10 -8 -15 -5 -4 2 -34 0 -66 -7 -33 -6 -66 -12
-74 -13 -8 -1 -22 -5 -30 -8 -8 -3 -42 -14 -75 -23 -124 -34 -327 -139 -424
-219 -80 -66 -181 -164 -219 -214 -66 -87 -136 -194 -137 -211 -1 -3 -8 -19
-17 -36 -34 -63 -80 -200 -94 -281 -2 -13 -7 -35 -11 -50 -12 -44 -14 -4489
-2 -4548 5 -27 12 -61 14 -75 11 -56 14 -70 40 -146 44 -130 137 -293 229
-402 28 -33 146 -151 146 -146 0 5 34 -23 66 -54 13 -12 26 -22 29 -22 4 0 26
-14 51 -31 48 -33 213 -118 242 -124 9 -2 40 -12 67 -22 60 -23 176 -50 265
-63 38 -5 1052 -8 2450 -7 l2385 2 56 28 c52 25 87 54 138 115 39 46 53 135
49 302 -4 173 -15 212 -83 281 -49 51 -49 52 -72 254 -8 66 -7 482 0 565 6 65
12 107 21 145 2 11 5 25 5 32 1 7 19 31 41 55 22 24 50 63 62 88 l23 45 0
2285 0 2285 -24 47 c-33 64 -93 122 -160 156 l-56 27 -2407 2 c-1609 2 -2409
-1 -2413 -7z m804 -1670 c26 3 60 3 74 -1 15 -4 29 -3 32 1 3 5 18 5 33 1 15
-5 36 -5 47 -1 11 4 32 4 47 -1 15 -4 30 -4 33 1 3 5 18 5 34 0 16 -4 32 -6
34 -4 9 9 97 9 97 1 0 -5 4 -6 9 -2 8 4 124 6 296 4 17 0 63 1 103 3 39 2 72
0 72 -4 0 -3 8 -4 18 -2 34 8 142 9 142 1 0 -5 4 -6 9 -2 8 4 124 6 296 4 17
0 63 1 103 3 39 2 72 -1 72 -5 0 -5 4 -6 9 -2 8 4 141 7 296 4 17 0 54 1 83 3
28 2 52 -1 52 -5 0 -5 5 -5 10 -2 6 4 41 6 78 5 86 -1 125 -1 189 1 28 0 56
-2 62 -5 5 -4 12 -2 15 3 4 5 18 6 34 2 15 -5 36 -5 47 -1 11 4 32 4 47 -1 15
-4 30 -4 33 1 3 5 18 5 34 0 16 -4 32 -6 34 -4 7 7 97 10 97 4 0 -3 24 -4 52
-2 134 7 170 -1 190 -45 12 -25 14 -102 9 -290 -1 -19 -11 -42 -25 -57 l-23
-26 -1478 0 c-812 0 -1481 -2 -1485 -5 -5 -3 -11 -1 -15 4 -3 6 -12 8 -19 5
-7 -3 -26 6 -42 20 l-29 24 -2 149 c-2 162 5 196 45 212 31 12 96 19 100 10 1
-3 24 -3 51 1z m-57 -845 c2 3 51 4 109 4 111 0 132 0 152 2 6 0 23 0 37 0 28
-1 166 -3 190 -2 82 2 122 1 130 -4 5 -3 11 -1 14 3 3 5 25 6 48 3 24 -4 57
-4 73 -1 17 3 49 3 73 -1 23 -3 45 -3 47 1 2 4 24 4 47 1 24 -4 57 -4 73 -1
17 3 49 3 73 -1 23 -3 45 -3 47 1 2 4 24 4 47 1 24 -4 57 -4 73 -1 17 3 49 3
73 -1 23 -3 45 -3 47 1 2 4 24 4 47 1 24 -4 57 -4 73 -1 17 3 49 3 73 -1 23
-3 45 -3 47 1 2 4 24 4 47 1 24 -4 57 -4 73 -1 17 3 49 3 73 -1 23 -3 45 -3
47 1 2 4 24 4 47 1 24 -4 57 -4 73 -1 17 3 49 3 73 -1 23 -3 45 -3 47 1 2 4
24 4 47 1 24 -4 57 -4 73 -1 17 3 49 3 73 -1 23 -3 45 -3 47 1 2 4 24 4 47 1
24 -4 57 -4 73 -1 17 3 49 3 73 -1 23 -3 45 -3 47 1 2 4 24 4 47 1 24 -4 57
-4 73 -1 17 3 49 3 73 -1 23 -3 45 -2 48 3 3 4 9 6 14 3 5 -3 35 -6 67 -6 49
-1 61 -5 82 -28 26 -27 26 -30 24 -178 -1 -161 -8 -188 -48 -203 -19 -7 -319
-13 -435 -8 -8 0 -44 0 -80 -1 -36 0 -72 0 -80 0 -8 1 -188 1 -400 1 -212 -1
-392 -1 -400 0 -8 0 -42 0 -75 -1 -60 -2 -826 -4 -855 -2 -8 0 -44 0 -80 0
-36 -1 -72 -1 -80 -1 -8 1 -129 1 -268 1 -222 0 -257 3 -282 18 -17 9 -31 22
-31 28 -1 5 -3 75 -4 155 -4 173 5 203 63 218 20 5 44 5 53 1 9 -5 18 -6 21
-4z m-415 -2519 c7 -3 13 -1 13 4 0 5 12 5 28 2 15 -4 38 -6 52 -5 47 4 95 6
120 4 14 -1 33 -1 43 -1 9 0 41 0 70 0 28 0 66 1 82 3 17 1 42 -1 58 -5 15 -3
27 -3 27 2 0 5 12 5 28 2 15 -4 38 -6 52 -5 47 4 95 6 120 4 14 -1 33 -1 43
-1 9 0 41 0 70 0 28 0 66 1 82 3 17 1 42 -1 58 -5 15 -3 27 -3 27 2 0 5 12 5
28 2 15 -4 38 -6 52 -5 47 4 95 6 120 4 14 -1 33 -1 43 -1 9 0 41 0 70 0 28 0
66 1 82 3 17 1 42 -1 58 -5 15 -3 27 -3 27 2 0 5 12 5 28 2 15 -4 38 -6 52 -5
47 4 95 6 120 4 14 -1 33 -1 43 -1 9 0 41 0 70 0 28 0 66 1 82 3 17 1 42 -1
58 -5 15 -3 27 -3 27 2 0 5 12 5 28 2 15 -4 38 -6 52 -5 47 4 95 6 120 4 14
-1 33 -1 43 -1 9 0 41 0 70 0 28 0 66 1 82 3 17 1 42 -1 58 -5 15 -3 27 -3 27
2 0 5 12 5 28 2 15 -4 38 -6 52 -5 47 4 95 6 120 4 14 -1 33 -1 43 -1 9 0 41
0 70 0 28 0 66 1 82 3 17 1 42 -1 58 -5 15 -3 27 -3 27 2 0 5 12 5 28 2 15 -4
38 -6 52 -5 47 4 95 6 120 4 14 -1 33 -1 43 -1 9 0 41 0 70 0 28 0 66 1 82 3
17 1 42 -1 58 -5 15 -3 27 -3 27 2 0 5 12 5 28 2 15 -4 38 -6 52 -5 47 4 95 6
120 4 14 -1 32 -1 40 -1 8 1 41 0 73 -1 31 -1 59 0 62 3 3 3 17 3 30 0 l25 -4
-7 -97 c-9 -128 -9 -533 1 -647 l7 -92 -51 -3 c-28 -2 -61 -1 -75 2 -13 4 -26
5 -28 3 -4 -4 -603 -7 -624 -3 -4 1 -12 1 -18 0 -14 -2 -611 -2 -622 0 -4 1
-12 1 -18 0 -5 -1 -91 -1 -190 -1 -99 1 -186 1 -192 1 -7 0 -42 0 -78 0 -36 0
-72 0 -80 0 -8 0 -44 0 -80 0 -36 0 -72 0 -80 0 -8 0 -44 0 -80 0 -36 0 -71 0
-77 0 -7 0 -63 -1 -123 -1 -61 -1 -115 -1 -120 0 -6 1 -14 2 -20 1 -14 -2
-451 -2 -461 0 -5 1 -13 1 -19 0 -14 -2 -451 -2 -461 0 -5 1 -13 1 -19 0 -5
-1 -55 -2 -110 -1 -55 1 -106 1 -112 1 -7 0 -42 0 -78 0 -90 0 -95 0 -141 -1
-98 -2 -219 33 -279 81 -51 39 -116 113 -136 151 -50 97 -59 227 -22 324 44
113 120 191 239 245 57 26 84 32 163 35 52 2 96 6 98 7 4 5 74 -1 90 -7z"/>
</g>
</svg>
